<svg width="22" height="19" viewBox="0 0 22 19" fill="none" xmlns="http://www.w3.org/2000/svg">
<path fill-rule="evenodd" clip-rule="evenodd" d="M12.0523 0.829537C12.3686 0.513201 12.8815 0.513201 13.1978 0.829537L21.2981 8.92983C21.45 9.08174 21.5354 9.28777 21.5354 9.5026C21.5354 9.71744 21.45 9.92347 21.2981 10.0754L13.1978 18.1757C12.8815 18.492 12.3686 18.492 12.0523 18.1757C11.7359 17.8593 11.7359 17.3465 12.0523 17.0301L18.7697 10.3126H1.28464C0.837272 10.3126 0.474609 9.94997 0.474609 9.5026C0.474609 9.05524 0.837272 8.69257 1.28464 8.69257H18.7697L12.0523 1.97509C11.7359 1.65876 11.7359 1.14587 12.0523 0.829537Z" fill="#E9EBF5"/>
</svg>
