<svg width="104" height="101" viewBox="0 0 104 101" fill="none" xmlns="http://www.w3.org/2000/svg">
<rect width="104" height="101" fill="#E9EBF5"/>
<path fill-rule="evenodd" clip-rule="evenodd" d="M35.9375 29.0625C35.9375 27.7163 37.0288 26.625 38.375 26.625H43.25C44.5962 26.625 45.6875 27.7163 45.6875 29.0625V72.9375C45.6875 74.2837 44.5962 75.375 43.25 75.375H38.375C37.7285 75.375 37.1085 75.1182 36.6514 74.6611C36.1943 74.204 35.9375 73.584 35.9375 72.9375L35.9375 29.0625ZM60.3125 29.0625C60.3125 27.7163 61.4038 26.625 62.75 26.625H67.625C68.2715 26.625 68.8915 26.8818 69.3486 27.3389C69.8057 27.796 70.0625 28.416 70.0625 29.0625L70.0625 72.9375C70.0625 74.2837 68.9712 75.375 67.625 75.375H62.75C61.4038 75.375 60.3125 74.2837 60.3125 72.9375V29.0625Z" fill="#0C0A0A"/>
</svg>
